# xmcd
#
# Track frame offsets:
#	150
#	16432
#	30231
#	44102
#	56641
#	71847
#	85091
#	99781
#	113329
#	128898
#	143957
#	160628
#
# Disc length: 2342 seconds
#
# Revision: 0
# Processed by: cddbd v1.5.2PL0 Copyright (c) Steve Scherf et al.
# Submitted via: EasyCDDAExtractor 2010.6.0.0
#
DISCID=9509240c
DTITLE=christoff - het beste van
DYEAR=1900
DGENRE=
TTITLE0=Een ster
TTITLE1=Als ik in je blauwe ogen kijk
TTITLE2=De maan en de sterren
TTITLE3=Blauw is de nacht
TTITLE4=Eenmaal komt voor jou die dag
TTITLE5=Ja jij
TTITLE6=Dans klein zigeurnermeisje
TTITLE7=Als je vanavond
TTITLE8=Ik schrijf jouw naam op alle muren
TTITLE9=Ik heb jou gevonden
TTITLE10=Ga met een lach door het leven
TTITLE11=Het voelt zo goed
EXTD=
EXTT0=
EXTT1=
EXTT2=
EXTT3=
EXTT4=
EXTT5=
EXTT6=
EXTT7=
EXTT8=
EXTT9=
EXTT10=
EXTT11=
PLAYORDER=
